<?xml version="1.0" encoding="UTF-8"?>
<svg xmlns="http://www.w3.org/2000/svg" xmlns:xlink="http://www.w3.org/1999/xlink" width="375pt" height="374.999991pt" viewBox="0 0 375 374.999991" version="1.2">
<defs>
<clipPath id="clip1">
  <path d="M 42 107 L 364 107 L 364 282 L 42 282 Z M 42 107 "/>
</clipPath>
<clipPath id="clip2">
  <path d="M 81.90625 18.960938 L 368.523438 104.980469 L 293.070312 356.402344 L 6.449219 270.382812 Z M 81.90625 18.960938 "/>
</clipPath>
<clipPath id="clip3">
  <path d="M 81.90625 18.960938 L 368.523438 104.980469 L 293.070312 356.402344 L 6.449219 270.382812 Z M 81.90625 18.960938 "/>
</clipPath>
<clipPath id="clip4">
  <path d="M 112 240 L 117 240 L 117 244 L 112 244 Z M 112 240 "/>
</clipPath>
<clipPath id="clip5">
  <path d="M 81.90625 18.960938 L 368.523438 104.980469 L 293.070312 356.402344 L 6.449219 270.382812 Z M 81.90625 18.960938 "/>
</clipPath>
<clipPath id="clip6">
  <path d="M 81.90625 18.960938 L 368.523438 104.980469 L 293.070312 356.402344 L 6.449219 270.382812 Z M 81.90625 18.960938 "/>
</clipPath>
<clipPath id="clip7">
  <path d="M 25 79 L 364 79 L 364 282 L 25 282 Z M 25 79 "/>
</clipPath>
<clipPath id="clip8">
  <path d="M 81.90625 18.960938 L 368.523438 104.980469 L 293.070312 356.402344 L 6.449219 270.382812 Z M 81.90625 18.960938 "/>
</clipPath>
<clipPath id="clip9">
  <path d="M 81.90625 18.960938 L 368.523438 104.980469 L 293.070312 356.402344 L 6.449219 270.382812 Z M 81.90625 18.960938 "/>
</clipPath>
<clipPath id="clip10">
  <path d="M 42 107 L 364 107 L 364 282 L 42 282 Z M 42 107 "/>
</clipPath>
<clipPath id="clip11">
  <path d="M 81.90625 18.960938 L 368.523438 104.980469 L 293.070312 356.402344 L 6.449219 270.382812 Z M 81.90625 18.960938 "/>
</clipPath>
<clipPath id="clip12">
  <path d="M 81.90625 18.960938 L 368.523438 104.980469 L 293.070312 356.402344 L 6.449219 270.382812 Z M 81.90625 18.960938 "/>
</clipPath>
</defs>
<g id="surface1">
<g clip-path="url(#clip1)" clip-rule="nonzero">
<g clip-path="url(#clip2)" clip-rule="nonzero">
<g clip-path="url(#clip3)" clip-rule="nonzero">
<path style=" stroke:none;fill-rule:nonzero;fill:rgb(100%,100%,100%);fill-opacity:1;" d="M 42.523438 281.089844 C 66.058594 262.757812 90.949219 249.957031 115.539062 241.988281 C 129.929688 227.625 145.855469 215.277344 162.828125 205.078125 C 149.265625 201.863281 134.988281 199.78125 120.195312 198.972656 C 138.878906 194.988281 157.214844 193.296875 174.785156 193.621094 C 191.210938 181.894531 209.214844 172.070312 228.441406 164.46875 C 218.632812 157.65625 208.140625 151.394531 197.03125 145.769531 C 221.601562 141.402344 246.175781 140.445312 270.027344 142.667969 C 297.359375 129.769531 328.6875 121.003906 363.085938 118.464844 C 362.960938 120.75 340.875 110.484375 306.039062 108.539062 C 271.503906 105.902344 224.25 111.601562 180.808594 129.703125 C 137.195312 147.179688 97.390625 177.078125 73.433594 208.433594 C 48.777344 239.234375 39.964844 271.523438 42.523438 281.089844 "/>
</g>
</g>
</g>
<g clip-path="url(#clip4)" clip-rule="nonzero">
<g clip-path="url(#clip5)" clip-rule="nonzero">
<g clip-path="url(#clip6)" clip-rule="nonzero">
<path style=" stroke:none;fill-rule:nonzero;fill:rgb(0%,0%,0%);fill-opacity:1;" d="M 112.234375 243.089844 C 113.339844 242.714844 114.441406 242.34375 115.539062 241.988281 C 115.894531 241.625 116.25 241.28125 116.625 240.921875 C 115.167969 241.640625 113.695312 242.359375 112.234375 243.089844 "/>
</g>
</g>
</g>
<g clip-path="url(#clip7)" clip-rule="nonzero">
<g clip-path="url(#clip8)" clip-rule="nonzero">
<g clip-path="url(#clip9)" clip-rule="nonzero">
<path style=" stroke:none;fill-rule:nonzero;fill:rgb(100%,100%,100%);fill-opacity:1;" d="M 42.523438 281.089844 C 43.261719 281.46875 15.183594 250.144531 28.808594 196.113281 C 40.640625 176.582031 54.429688 158.214844 69.953125 141.234375 C 69.941406 152.535156 70.457031 163.671875 71.503906 174.597656 C 78.613281 154.554688 87.972656 134.652344 99.617188 115.324219 C 98.578125 114.566406 155.125 78.539062 198.875 79.914062 C 193.933594 87.644531 189.402344 95.464844 185.285156 103.34375 C 200.257812 95 216.105469 87.742188 232.671875 81.726562 C 232.746094 80.265625 299.585938 84.304688 331.703125 101.703125 C 363.816406 117.480469 362.792969 118.859375 363.085938 118.464844 C 364.335938 118.738281 277.414062 93.195312 192.351562 128.894531 C 150.519531 144.566406 111.109375 171.714844 85.023438 202.191406 C 58.378906 232.140625 45.050781 265.433594 42.523438 281.089844 "/>
</g>
</g>
</g>
<g clip-path="url(#clip10)" clip-rule="nonzero">
<g clip-path="url(#clip11)" clip-rule="nonzero">
<g clip-path="url(#clip12)" clip-rule="nonzero">
<path style=" stroke:none;fill-rule:nonzero;fill:rgb(0%,0%,0%);fill-opacity:1;" d="M 42.523438 281.089844 C 50.527344 249.410156 67.867188 220.035156 89.660156 195.359375 C 111.566406 170.628906 138.394531 150.273438 168.0625 135.65625 C 171.769531 133.816406 175.515625 132.050781 179.285156 130.382812 C 183.097656 128.726562 186.921875 127.167969 190.796875 125.699219 C 198.523438 122.753906 206.382812 120.105469 214.34375 117.804688 C 222.324219 115.542969 230.429688 113.753906 238.59375 112.21875 C 246.757812 110.699219 254.992188 109.515625 263.289062 108.757812 C 279.859375 107.351562 296.628906 107.339844 313.347656 108.875 C 330.046875 110.664062 346.703125 113.699219 363.085938 118.464844 C 329.851562 110.757812 296.273438 108.898438 263.585938 112.40625 C 247.277344 114.324219 231.199219 117.5625 215.550781 122.078125 C 207.738281 124.402344 200.027344 127.035156 192.449219 129.964844 C 188.660156 131.445312 184.90625 132.984375 181.167969 134.59375 C 177.46875 136.269531 173.796875 138.015625 170.167969 139.839844 C 162.90625 143.441406 155.777344 147.355469 148.824219 151.539062 C 141.925781 155.808594 135.207031 160.367188 128.683594 165.195312 C 122.089844 169.957031 115.90625 175.21875 109.832031 180.597656 C 103.742188 185.984375 97.984375 191.722656 92.46875 197.703125 C 89.710938 200.691406 86.972656 203.695312 84.378906 206.839844 C 81.789062 209.976562 79.261719 213.15625 76.792969 216.40625 C 71.769531 222.84375 67.316406 229.664062 62.992188 236.609375 C 54.519531 250.542969 47.320312 265.441406 42.523438 281.089844 "/>
</g>
</g>
</g>
</g>
</svg>
